<svg xmlns="http://www.w3.org/2000/svg" viewBox="0 0 48 48"><path fill="#1877F2" d="M24 4C12.954 4 4 12.954 4 24c0 9.994 7.324 18.28 16.897 19.757V29.83H15.83V24h5.067v-4.393c0-5 2.977-7.76 7.533-7.76 2.183 0 4.467.39 4.467.39v4.907h-2.513c-2.477 0-3.25 1.537-3.25 3.113V24h5.53l-.884 5.83h-4.646v13.927C35.676 42.28 43 33.994 43 24c0-11.046-8.954-20-20-20z"/><path fill="#fff" d="M31.78 29.83l.884-5.83h-5.53v-3.743c0-1.576.773-3.113 3.25-3.113h2.513v-4.907s-2.284-.39-4.467-.39c-4.556 0-7.533 2.76-7.533 7.76V24H15.83v5.83h5.067v13.927A20.13 20.13 0 0 0 24 44c1.056 0 2.09-.082 3.103-.243V29.83h4.677z"/></svg>
